<?xml version="1.0" encoding="utf-8"?>
<!-- Generator: Adobe Illustrator 16.0.0, SVG Export Plug-In . SVG Version: 6.00 Build 0)  -->
<!DOCTYPE svg PUBLIC "-//W3C//DTD SVG 1.1//EN" "http://www.w3.org/Graphics/SVG/1.1/DTD/svg11.dtd">
<svg version="1.1" xmlns="http://www.w3.org/2000/svg" xmlns:xlink="http://www.w3.org/1999/xlink" x="0px" y="0px" width="1000px"
	 height="1000px" viewBox="0 0 1000 1000" style="enable-background:new 0 0 1000 1000;" xml:space="preserve">
<g id="Layer_5">
	<g>
		<rect x="-26.7" y="-28.1" style="fill:#202638;" width="1056.1" height="1056.1"/>
	</g>
</g>
<g id="Layer_3">
	<g>
		<rect x="60" y="-4.1" style="fill:#FFFFFF;" width="8.2" height="8.2"/>
		<rect x="155.4" y="-4.1" style="fill:#FFFFFF;" width="8.2" height="8.2"/>
		<rect x="250.7" y="-4.1" style="fill:#FFFFFF;" width="8.2" height="8.2"/>
		<rect x="346.1" y="-4.1" style="fill:#FFFFFF;" width="8.2" height="8.2"/>
		<rect x="441.4" y="-4.1" style="fill:#FFFFFF;" width="8.2" height="8.2"/>
		<rect x="536.8" y="-4.1" style="fill:#FFFFFF;" width="8.2" height="8.2"/>
		<rect x="632.1" y="-4.1" style="fill:#FFFFFF;" width="8.2" height="8.2"/>
		<rect x="727.4" y="-4.1" style="fill:#FFFFFF;" width="8.2" height="8.2"/>
		<rect x="822.8" y="-4.1" style="fill:#FFFFFF;" width="8.2" height="8.2"/>
		<rect x="918.1" y="-4.1" style="fill:#FFFFFF;" width="8.2" height="8.2"/>
	</g>
	<g>
		<rect x="60" y="995.9" style="fill:#FFFFFF;" width="8.2" height="8.2"/>
		<rect x="155.4" y="995.9" style="fill:#FFFFFF;" width="8.2" height="8.2"/>
		<rect x="250.7" y="995.9" style="fill:#FFFFFF;" width="8.2" height="8.2"/>
		<rect x="346.1" y="995.9" style="fill:#FFFFFF;" width="8.2" height="8.2"/>
		<rect x="441.4" y="995.9" style="fill:#FFFFFF;" width="8.2" height="8.2"/>
		<rect x="536.8" y="995.9" style="fill:#FFFFFF;" width="8.2" height="8.2"/>
		<rect x="632.1" y="995.9" style="fill:#FFFFFF;" width="8.2" height="8.2"/>
		<rect x="727.4" y="995.9" style="fill:#FFFFFF;" width="8.2" height="8.2"/>
		<rect x="822.8" y="995.9" style="fill:#FFFFFF;" width="8.2" height="8.2"/>
		<rect x="918.1" y="995.9" style="fill:#FFFFFF;" width="8.2" height="8.2"/>
	</g>
	<g>
		<rect x="-6.5" y="885" style="fill:#FFFFFF;" width="8.2" height="8.2"/>
		<rect x="88.8" y="885" style="fill:#FFFFFF;" width="8.2" height="8.2"/>
		<rect x="184.2" y="885" style="fill:#FFFFFF;" width="8.2" height="8.2"/>
		<rect x="279.5" y="885" style="fill:#FFFFFF;" width="8.2" height="8.2"/>
		<rect x="374.8" y="885" style="fill:#FFFFFF;" width="8.2" height="8.2"/>
		<rect x="470.2" y="885" style="fill:#FFFFFF;" width="8.2" height="8.2"/>
		<rect x="565.5" y="885" style="fill:#FFFFFF;" width="8.2" height="8.2"/>
		<rect x="660.9" y="885" style="fill:#FFFFFF;" width="8.2" height="8.2"/>
		<rect x="756.2" y="885" style="fill:#FFFFFF;" width="8.2" height="8.2"/>
		<rect x="851.6" y="885" style="fill:#FFFFFF;" width="8.2" height="8.2"/>
	</g>
	<g>
		<rect x="60" y="774.1" style="fill:#FFFFFF;" width="8.2" height="8.2"/>
		<rect x="155.4" y="774.1" style="fill:#FFFFFF;" width="8.2" height="8.2"/>
		<rect x="250.7" y="774.1" style="fill:#FFFFFF;" width="8.2" height="8.2"/>
		<rect x="346.1" y="774.1" style="fill:#FFFFFF;" width="8.2" height="8.2"/>
		<rect x="441.4" y="774.1" style="fill:#FFFFFF;" width="8.2" height="8.2"/>
		<rect x="536.8" y="774.1" style="fill:#FFFFFF;" width="8.2" height="8.2"/>
		<rect x="632.1" y="774.1" style="fill:#FFFFFF;" width="8.2" height="8.2"/>
		<rect x="727.4" y="774.1" style="fill:#FFFFFF;" width="8.2" height="8.2"/>
		<rect x="822.8" y="774.1" style="fill:#FFFFFF;" width="8.2" height="8.2"/>
		<rect x="918.1" y="774.1" style="fill:#FFFFFF;" width="8.2" height="8.2"/>
	</g>
	<g>
		<rect x="-6.5" y="663.2" style="fill:#FFFFFF;" width="8.2" height="8.2"/>
		<rect x="88.8" y="663.2" style="fill:#FFFFFF;" width="8.2" height="8.2"/>
		<rect x="184.2" y="663.2" style="fill:#FFFFFF;" width="8.2" height="8.2"/>
		<rect x="279.5" y="663.2" style="fill:#FFFFFF;" width="8.2" height="8.2"/>
		<rect x="374.8" y="663.2" style="fill:#FFFFFF;" width="8.2" height="8.2"/>
		<rect x="470.2" y="663.2" style="fill:#FFFFFF;" width="8.2" height="8.2"/>
		<rect x="565.5" y="663.2" style="fill:#FFFFFF;" width="8.2" height="8.2"/>
		<rect x="660.9" y="663.2" style="fill:#FFFFFF;" width="8.2" height="8.2"/>
		<rect x="756.2" y="663.2" style="fill:#FFFFFF;" width="8.2" height="8.2"/>
		<rect x="851.6" y="663.2" style="fill:#FFFFFF;" width="8.2" height="8.2"/>
	</g>
	<g>
		<rect x="60" y="552.3" style="fill:#FFFFFF;" width="8.2" height="8.2"/>
		<rect x="155.4" y="552.3" style="fill:#FFFFFF;" width="8.2" height="8.2"/>
		<rect x="250.7" y="552.3" style="fill:#FFFFFF;" width="8.2" height="8.2"/>
		<rect x="346.1" y="552.3" style="fill:#FFFFFF;" width="8.2" height="8.2"/>
		<rect x="441.4" y="552.3" style="fill:#FFFFFF;" width="8.2" height="8.2"/>
		<rect x="536.8" y="552.3" style="fill:#FFFFFF;" width="8.2" height="8.2"/>
		<rect x="632.1" y="552.3" style="fill:#FFFFFF;" width="8.2" height="8.2"/>
		<rect x="727.4" y="552.3" style="fill:#FFFFFF;" width="8.2" height="8.2"/>
		<rect x="822.8" y="552.3" style="fill:#FFFFFF;" width="8.2" height="8.2"/>
		<rect x="918.1" y="552.3" style="fill:#FFFFFF;" width="8.2" height="8.2"/>
	</g>
	<g>
		<rect x="-6.5" y="441.4" style="fill:#FFFFFF;" width="8.2" height="8.2"/>
		<rect x="88.8" y="441.4" style="fill:#FFFFFF;" width="8.2" height="8.2"/>
		<rect x="184.2" y="441.4" style="fill:#FFFFFF;" width="8.2" height="8.2"/>
		<rect x="279.5" y="441.4" style="fill:#FFFFFF;" width="8.2" height="8.2"/>
		<rect x="374.8" y="441.4" style="fill:#FFFFFF;" width="8.2" height="8.2"/>
		<rect x="470.2" y="441.4" style="fill:#FFFFFF;" width="8.2" height="8.2"/>
		<rect x="565.5" y="441.4" style="fill:#FFFFFF;" width="8.2" height="8.2"/>
		<rect x="660.9" y="441.4" style="fill:#FFFFFF;" width="8.2" height="8.2"/>
		<rect x="756.2" y="441.4" style="fill:#FFFFFF;" width="8.2" height="8.2"/>
		<rect x="851.6" y="441.4" style="fill:#FFFFFF;" width="8.2" height="8.2"/>
	</g>
	<g>
		<rect x="60" y="330.5" style="fill:#FFFFFF;" width="8.2" height="8.2"/>
		<rect x="155.4" y="330.5" style="fill:#FFFFFF;" width="8.2" height="8.2"/>
		<rect x="250.7" y="330.5" style="fill:#FFFFFF;" width="8.2" height="8.2"/>
		<rect x="346.1" y="330.5" style="fill:#FFFFFF;" width="8.2" height="8.2"/>
		<rect x="441.4" y="330.5" style="fill:#FFFFFF;" width="8.2" height="8.2"/>
		<rect x="536.8" y="330.5" style="fill:#FFFFFF;" width="8.2" height="8.2"/>
		<rect x="632.1" y="330.5" style="fill:#FFFFFF;" width="8.2" height="8.2"/>
		<rect x="727.4" y="330.5" style="fill:#FFFFFF;" width="8.2" height="8.2"/>
		<rect x="822.8" y="330.5" style="fill:#FFFFFF;" width="8.2" height="8.2"/>
		<rect x="918.1" y="330.5" style="fill:#FFFFFF;" width="8.2" height="8.2"/>
	</g>
	<g>
		<rect x="-6.5" y="219.6" style="fill:#FFFFFF;" width="8.2" height="8.2"/>
		<rect x="88.8" y="219.6" style="fill:#FFFFFF;" width="8.2" height="8.2"/>
		<rect x="184.2" y="219.6" style="fill:#FFFFFF;" width="8.2" height="8.2"/>
		<rect x="279.5" y="219.6" style="fill:#FFFFFF;" width="8.2" height="8.2"/>
		<rect x="374.8" y="219.6" style="fill:#FFFFFF;" width="8.2" height="8.2"/>
		<rect x="470.2" y="219.6" style="fill:#FFFFFF;" width="8.2" height="8.2"/>
		<rect x="565.5" y="219.6" style="fill:#FFFFFF;" width="8.2" height="8.2"/>
		<rect x="660.9" y="219.6" style="fill:#FFFFFF;" width="8.2" height="8.2"/>
		<rect x="756.2" y="219.6" style="fill:#FFFFFF;" width="8.2" height="8.2"/>
		<rect x="851.6" y="219.6" style="fill:#FFFFFF;" width="8.2" height="8.2"/>
	</g>
	<g>
		<rect x="144" y="108.8" style="fill:#FFFFFF;" width="8.2" height="8.2"/>
		<rect x="239.4" y="108.8" style="fill:#FFFFFF;" width="8.2" height="8.2"/>
		<rect x="334.7" y="108.8" style="fill:#FFFFFF;" width="8.2" height="8.2"/>
		<rect x="430.1" y="108.8" style="fill:#FFFFFF;" width="8.2" height="8.2"/>
		<rect x="525.4" y="108.8" style="fill:#FFFFFF;" width="8.2" height="8.2"/>
		<rect x="620.7" y="108.8" style="fill:#FFFFFF;" width="8.2" height="8.2"/>
		<rect x="716.1" y="108.8" style="fill:#FFFFFF;" width="8.2" height="8.2"/>
		<rect x="811.4" y="108.8" style="fill:#FFFFFF;" width="8.2" height="8.2"/>
		<rect x="906.8" y="108.8" style="fill:#FFFFFF;" width="8.2" height="8.2"/>
	</g>
	<g>
		<rect x="968.7" y="663.2" style="fill:#FFFFFF;" width="8.2" height="8.2"/>
	</g>
	<g>
		<rect x="964.7" y="885" style="fill:#FFFFFF;" width="8.2" height="8.2"/>
	</g>
	<g>
		<rect x="952.1" y="437.3" style="fill:#FFFFFF;" width="8.2" height="8.2"/>
	</g>
</g>
<g id="Layer_6">
	<path style="fill:#B5BAC9;" d="M48.7,19.3v-8.4h-8.8V0.6h-8.4v-8h8.4v-10.3H29.6v10.3h-7.2v9.2h-9h-2h-9v-9.2H-5v-10.3h-10.3v10.3
		h8.4v8h-8.4v10.3h-8.8v8.4h-8.8v17.2h8.8v-8.8h8.8v8.8h8.4v8.8h-8.4v9.5h9.5v-9.5h8v-8.8h3.1h6h2h6h3.1v8.8h8v9.5h9.5v-9.5h-8.4
		v-8.8h8.4v-8.8h8.8v8.8h8.8V19.3H48.7z M2.2,19.2h-9.2v-8.2h9.2V19.2z M31.5,19.2h-9.2v-8.2h9.2V19.2z"/>
	<g>
		<rect x="601.4" y="867.9" style="fill:#60C2D8;" width="8.8" height="8.8"/>
		<path style="fill:#60C2D8;" d="M662.3,822v18.3h-9.1v-8.4h-8.8v-9.2h8.8v-9.5h-9.5v9.5h-6.5h-2.7h-1.6h-1.1h-1.6h-2.7h-6.5v-9.5
			h-9.5v9.5h8.8v9.2h-8.8v8.4h-9.1V822h-9.2v29.4h5.7h1.9v6.5h9.4v10h10.1v-10h7.3h4.3h1.1h4.3h7.3v10h10.1v-10h9.4v-6.5h1.9h5.7
			V822H662.3z M627.5,848.3h-7.3v-8h7.3V848.3z M644.4,848.3h-7.3v-8h7.3V848.3z"/>
		<rect x="654.5" y="867.9" style="fill:#60C2D8;" width="8.8" height="8.8"/>
	</g>
	<g>
		<rect x="879.1" y="133.9" style="fill:#E94B9B;" width="9.9" height="9.9"/>
		<rect x="889" y="143.8" style="fill:#E94B9B;" width="16.9" height="8.4"/>
		<path style="fill:#E94B9B;" d="M945.7,115.5v-8.1h9.9V89.8h-9.9v-0.4v-8.3H938h-11.2v-9.7h-8.9h-1.1h-8.9v9.7h-11.2H889v8.3v0.4
			h-9.9v17.6h9.9v8.1h7.7v9.7H889v8.6h7.7h9.2v-8.6h10.9h1.1h10.9v8.6h9.2h7.7v-8.6H938v-9.7H945.7z M896.7,98.6v-9.2h11.2v9.2
			H896.7z M928.8,115.5h-10.9h-1.1h-10.9v-8.1h2h6.6h2.3h1.1h2.3h6.6h2V115.5z M926.8,98.6v-9.2H938v9.2H926.8z"/>
		<rect x="945.7" y="133.9" style="fill:#E94B9B;" width="9.9" height="9.9"/>
		<rect x="928.8" y="143.8" style="fill:#E94B9B;" width="16.9" height="8.4"/>
	</g>
	<path style="fill:#B5BAC9;" d="M1048.7,19.3v-8.4h-8.8V0.6h-8.4v-8h8.4v-10.3h-10.3v10.3h-7.2v9.2h-9h-2h-9v-9.2H995v-10.3h-10.3
		v10.3h8.4v8h-8.4v10.3h-8.8v8.4h-8.8v17.2h8.8v-8.8h8.8v8.8h8.4v8.8h-8.4v9.5h9.5v-9.5h8v-8.8h3.1h6h2h6h3.1v8.8h8v9.5h9.5v-9.5
		h-8.4v-8.8h8.4v-8.8h8.8v8.8h8.8V19.3H1048.7z M1002.2,19.2h-9.2v-8.2h9.2V19.2z M1031.5,19.2h-9.2v-8.2h9.2V19.2z"/>
	<path style="fill:#D5C828;" d="M722.4,331v-27.9h-9.2v18.3h-8.4V313H696v-8.7h9.3v-9.3H696v9.2h-10.3v8.8H678h-7.7v-8.8h-10.3v-9.2
		h-9.3v9.3h9.3v8.7h-8.8v8.4h-8.4v-18.3h-9.2V331h9.2v26.3h-9.2v9.5h9.2h4.2h4.2v-18.3h8.8v10.1h10.3v-10.1h7.7h7.7v10.1H696v-10.1
		h8.8v18.3h4.2h4.2h9.2v-9.5h-9.2V331H722.4z M670.2,340.3h-10.3v-18.9h10.3V340.3z M696,340.3h-10.3v-18.9H696V340.3z"/>
	<g>
		<rect x="364.7" y="622.5" style="fill:#60C2D8;" width="8.8" height="8.8"/>
		<path style="fill:#60C2D8;" d="M425.6,576.6v18.3h-9.1v-8.4h-8.8v-9.2h8.8v-9.5H407v9.5h-6.5h-2.7h-1.6h-1.1h-1.6h-2.7h-6.5v-9.5
			h-9.5v9.5h8.8v9.2h-8.8v8.4h-9.1v-18.3h-9.2V606h5.7h1.9v6.5h9.4v10h10.1v-10h7.3h4.3h1.1h4.3h7.3v10h10.1v-10h9.4V606h1.9h5.7
			v-29.4H425.6z M390.9,603h-7.3v-8h7.3V603z M407.7,603h-7.3v-8h7.3V603z"/>
		<rect x="417.8" y="622.5" style="fill:#60C2D8;" width="8.8" height="8.8"/>
	</g>
	<path style="fill:#B5BAC9;" d="M48.7,1019.3v-8.4h-8.8v-10.3h-8.4v-8h8.4v-10.3H29.6v10.3h-7.2v9.2h-9h-2h-9v-9.2H-5v-10.3h-10.3
		v10.3h8.4v8h-8.4v10.3h-8.8v8.4h-8.8v17.2h8.8v-8.8h8.8v8.8h8.4v8.8h-8.4v9.5h9.5v-9.5h8v-8.8h3.1h6h2h6h3.1v8.8h8v9.5h9.5v-9.5
		h-8.4v-8.8h8.4v-8.8h8.8v8.8h8.8v-17.2H48.7z M2.2,1019.2h-9.2v-8.2h9.2V1019.2z M31.5,1019.2h-9.2v-8.2h9.2V1019.2z"/>
	<path style="fill:#D5C828;" d="M162.8,944.8v-27.9h-9.2v18.3h-8.4v-8.4h-8.8v-8.7h9.3v-9.3h-9.3v9.2h-10.3v8.8h-7.7h-7.7v-8.8
		h-10.3v-9.2h-9.3v9.3h9.3v8.7h-8.8v8.4h-8.4v-18.3H74v27.9h9.2v26.3H74v9.5h9.2h4.2h4.2v-18.3h8.8v10.1h10.3v-10.1h7.7h7.7v10.1
		h10.3v-10.1h8.8v18.3h4.2h4.2h9.2v-9.5h-9.2v-26.3H162.8z M110.6,954.2h-10.3v-18.9h10.3V954.2z M136.4,954.2h-10.3v-18.9h10.3
		V954.2z"/>
	<path style="fill:#4252A4;" d="M941.1,927.9v-8.8h-8.4v-9.2h-8.8v-7.6h-8v7.6h-8.8h-8.8v-7.6h-8v7.6h-8.8v9.2h-8.4v8.8h-9.5v9.9
		V955h9.5v-17.2h8.4V955h8.8v8.8h-8.8v8.4h8.8h8v-8.4V955h4.4h4.4h4.4h4.4v8.8v8.4h8h8.8v-8.4h-8.8V955h8.8v-17.2h8.4V955h9.5v-17.2
		v-9.9H941.1z M898.4,937.8h-8v-9.9h8V937.8z M923.9,937.8h-8v-9.9h8V937.8z"/>
	<path style="fill:#B5BAC9;" d="M1048.7,1019.3v-8.4h-8.8v-10.3h-8.4v-8h8.4v-10.3h-10.3v10.3h-7.2v9.2h-9h-2h-9v-9.2H995v-10.3
		h-10.3v10.3h8.4v8h-8.4v10.3h-8.8v8.4h-8.8v17.2h8.8v-8.8h8.8v8.8h8.4v8.8h-8.4v9.5h9.5v-9.5h8v-8.8h3.1h6h2h6h3.1v8.8h8v9.5h9.5
		v-9.5h-8.4v-8.8h8.4v-8.8h8.8v8.8h8.8v-17.2H1048.7z M1002.2,1019.2h-9.2v-8.2h9.2V1019.2z M1031.5,1019.2h-9.2v-8.2h9.2V1019.2z"
		/>
	<path style="fill:#D5C828;" d="M419.4,172.8v-27.9h-9.2v18.3h-8.4v-8.4H393v-8.7h9.3v-9.3H393v9.2h-10.3v8.8H375h-7.7v-8.8H357
		v-9.2h-9.3v9.3h9.3v8.7h-8.8v8.4h-8.4v-18.3h-9.2v27.9h9.2v26.3h-9.2v9.5h9.2h4.2h4.2v-18.3h8.8v10.1h10.3v-10.1h7.7h7.7v10.1H393
		v-10.1h8.8v18.3h4.2h4.2h9.2v-9.5h-9.2v-26.3H419.4z M367.3,182.2H357v-18.9h10.3V182.2z M393,182.2h-10.3v-18.9H393V182.2z"/>
	<g>
		<rect x="555.8" y="701.2" style="fill:#E94B9B;" width="9.9" height="9.9"/>
		<rect x="565.7" y="711.1" style="fill:#E94B9B;" width="16.9" height="8.4"/>
		<path style="fill:#E94B9B;" d="M622.4,682.9v-8.1h9.9v-17.6h-9.9v-0.4v-8.3h-7.7h-11.2v-9.7h-8.9h-1.1h-8.9v9.7h-11.2h-7.7v8.3
			v0.4h-9.9v17.6h9.9v8.1h7.7v9.7h-7.7v8.6h7.7h9.2v-8.6h10.9h1.1h10.9v8.6h9.2h7.7v-8.6h-7.7v-9.7H622.4z M573.5,666v-9.2h11.2v9.2
			H573.5z M605.5,682.9h-10.9h-1.1h-10.9v-8.1h2h6.6h2.3h1.1h2.3h6.6h2V682.9z M603.5,666v-9.2h11.2v9.2H603.5z"/>
		<rect x="622.4" y="701.2" style="fill:#E94B9B;" width="9.9" height="9.9"/>
		<rect x="605.5" y="711.1" style="fill:#E94B9B;" width="16.9" height="8.4"/>
	</g>
	<path style="fill:#B5BAC9;" d="M282.8,670.7v-8.4H274V652h-8.4v-8h8.4v-10.3h-10.3V644h-7.2v9.2h-9h-2h-9V644h-7.2v-10.3h-10.3V644
		h8.4v8h-8.4v10.3H210v8.4h-8.8v17.2h8.8v-8.8h8.8v8.8h8.4v8.8h-8.4v9.5h9.5v-9.5h8v-8.8h3.1h6h2h6h3.1v8.8h8v9.5h9.5v-9.5h-8.4
		v-8.8h8.4v-8.8h8.8v8.8h8.8v-17.2H282.8z M236.3,670.5h-9.2v-8.2h9.2V670.5z M265.6,670.5h-9.2v-8.2h9.2V670.5z"/>
	<path style="fill:#D5C828;" d="M57.5,655.9V628h-9.2v18.3h-8.4v-8.4h-8.8v-8.7h9.3V620h-9.3v9.2H20.8v8.8h-7.7H5.3v-8.8H-5V620
		h-9.3v9.3H-5v8.7h-8.8v8.4h-8.4V628h-9.2v27.9h9.2v26.3h-9.2v9.5h9.2h4.2h4.2v-18.3H-5v10.1H5.3v-10.1h7.7h7.7v10.1h10.3v-10.1h8.8
		v18.3h4.2h4.2h9.2v-9.5h-9.2v-26.3H57.5z M5.3,665.2H-5v-18.9H5.3V665.2z M31.1,665.2H20.8v-18.9h10.3V665.2z"/>
	<g>
		<path style="fill:#60C2D8;" d="M33.7,806.5v18.3h-9.1v-8.4h-8.8v-9.2h8.8v-9.5h-9.5v9.5H8.6H5.9H4.3H3.2H1.6H-1h-6.5v-9.5h-9.5
			v9.5h8.8v9.2h-8.8v8.4h-9.1v-18.3h-9.2V836h5.7h1.9v6.5h9.4v10h10.1v-10H-1h4.3h1.1h4.3h7.3v10h10.1v-10h9.4V836h1.9h5.7v-29.4
			H33.7z M-1,832.9h-7.3v-8H-1V832.9z M15.8,832.9H8.6v-8h7.3V832.9z"/>
		<rect x="25.9" y="852.5" style="fill:#60C2D8;" width="8.8" height="8.8"/>
	</g>
	<g>
		<rect x="773.8" y="844.9" style="fill:#E94B9B;" width="9.9" height="9.9"/>
		<rect x="783.7" y="854.9" style="fill:#E94B9B;" width="16.9" height="8.4"/>
		<path style="fill:#E94B9B;" d="M840.4,826.6v-8.1h9.9v-17.6h-9.9v-0.4v-8.3h-7.7h-11.2v-9.7h-8.9h-1.1h-8.9v9.7h-11.2h-7.7v8.3
			v0.4h-9.9v17.6h9.9v8.1h7.7v9.7h-7.7v8.6h7.7h9.2v-8.6h10.9h1.1h10.9v8.6h9.2h7.7v-8.6h-7.7v-9.7H840.4z M791.4,809.7v-9.2h11.2
			v9.2H791.4z M823.5,826.6h-10.9h-1.1h-10.9v-8.1h2h6.6h2.3h1.1h2.3h6.6h2V826.6z M821.5,809.7v-9.2h11.2v9.2H821.5z"/>
		<rect x="840.4" y="844.9" style="fill:#E94B9B;" width="9.9" height="9.9"/>
		<rect x="823.5" y="854.9" style="fill:#E94B9B;" width="16.9" height="8.4"/>
	</g>
	<path style="fill:#4252A4;" d="M835.8,638.9v-8.8h-8.4V621h-8.8v-7.6h-8v7.6h-8.8H793v-7.6h-8v7.6h-8.8v9.2h-8.4v8.8h-9.5v9.9v17.2
		h9.5v-17.2h8.4v17.2h8.8v8.8h-8.8v8.4h8.8h8v-8.4v-8.8h4.4h4.4h4.4h4.4v8.8v8.4h8h8.8v-8.4h-8.8v-8.8h8.8v-17.2h8.4v17.2h9.5v-17.2
		v-9.9H835.8z M793,648.9h-8v-9.9h8V648.9z M818.6,648.9h-8v-9.9h8V648.9z"/>
	<path style="fill:#B5BAC9;" d="M943.4,730.4V722h-8.8v-10.3h-8.4v-8h8.4v-10.3h-10.3v10.3H917v9.2h-9h-2h-9v-9.2h-7.2v-10.3h-10.3
		v10.3h8.4v8h-8.4V722h-8.8v8.4h-8.8v17.2h8.8v-8.8h8.8v8.8h8.4v8.8h-8.4v9.5h9.5v-9.5h8v-8.8h3.1h6h2h6h3.1v8.8h8v9.5h9.5v-9.5
		h-8.4v-8.8h8.4v-8.8h8.8v8.8h8.8v-17.2H943.4z M896.9,730.2h-9.2V722h9.2V730.2z M926.2,730.2H917V722h9.2V730.2z"/>
	<path style="fill:#D5C828;" d="M1057.5,655.9V628h-9.2v18.3h-8.4v-8.4h-8.8v-8.7h9.3V620h-9.3v9.2h-10.3v8.8h-7.7h-7.7v-8.8H995
		V620h-9.3v9.3h9.3v8.7h-8.8v8.4h-8.4V628h-9.2v27.9h9.2v26.3h-9.2v9.5h9.2h4.2h4.2v-18.3h8.8v10.1h10.3v-10.1h7.7h7.7v10.1h10.3
		v-10.1h8.8v18.3h4.2h4.2h9.2v-9.5h-9.2v-26.3H1057.5z M1005.3,665.2H995v-18.9h10.3V665.2z M1031.1,665.2h-10.3v-18.9h10.3V665.2z"
		/>
	<g>
		<rect x="972.8" y="852.5" style="fill:#60C2D8;" width="8.8" height="8.8"/>
		<path style="fill:#60C2D8;" d="M1033.7,806.5v18.3h-9.1v-8.4h-8.8v-9.2h8.8v-9.5h-9.5v9.5h-6.5h-2.7h-1.6h-1.1h-1.6H999h-6.5v-9.5
			h-9.5v9.5h8.8v9.2h-8.8v8.4h-9.1v-18.3h-9.2V836h5.7h1.9v6.5h9.4v10h10.1v-10h7.3h4.3h1.1h4.3h7.3v10h10.1v-10h9.4V836h1.9h5.7
			v-29.4H1033.7z M999,832.9h-7.3v-8h7.3V832.9z M1015.8,832.9h-7.3v-8h7.3V832.9z"/>
	</g>
	<path style="fill:#4252A4;" d="M456.2,314v-8.8h-8.4v-9.2H439v-7.6h-8v7.6h-8.8h-8.8v-7.6h-8v7.6h-8.8v9.2h-8.4v8.8h-9.5v9.9v17.2
		h9.5V324h8.4v17.2h8.8v8.8h-8.8v8.4h8.8h8v-8.4v-8.8h4.4h4.4h4.4h4.4v8.8v8.4h8h8.8v-8.4H439v-8.8h8.8V324h8.4v17.2h9.5V324V314
		H456.2z M413.4,324h-8V314h8V324z M439,324h-8V314h8V324z"/>
	<path style="fill:#B5BAC9;" d="M46.8,441.4V433h-8.8v-10.3h-8.4v-8h8.4v-10.3H27.7v10.3h-7.2v9.2h-9h-2h-9v-9.2h-7.2v-10.3h-10.3
		v10.3h8.4v8h-8.4V433H-26v8.4h-8.8v17.2h8.8v-8.8h8.8v8.8h8.4v8.8h-8.4v9.5h9.5v-9.5h8v-8.8h3.1h6h2h6h3.1v8.8h8v9.5h9.5v-9.5h-8.4
		v-8.8h8.4v-8.8h8.8v8.8h8.8v-17.2H46.8z M0.4,441.2h-9.2V433h9.2V441.2z M29.7,441.2h-9.2V433h9.2V441.2z"/>
	<path style="fill:#D5C828;" d="M182.6,359.3v-27.9h-9.2v18.3H165v-8.4h-8.8v-8.7h9.3v-9.3h-9.3v9.2h-10.3v8.8h-7.7h-7.7v-8.8h-10.3
		v-9.2h-9.3v9.3h9.3v8.7h-8.8v8.4H103v-18.3h-9.2v27.9h9.2v26.3h-9.2v9.5h9.2h4.2h4.2v-18.3h8.8V387h10.3v-10.1h7.7h7.7V387h10.3
		v-10.1h8.8v18.3h4.2h4.2h9.2v-9.5h-9.2v-26.3H182.6z M130.5,368.6h-10.3v-18.9h10.3V368.6z M156.2,368.6h-10.3v-18.9h10.3V368.6z"
		/>
	<g>
		<rect x="76.3" y="563.4" style="fill:#60C2D8;" width="8.8" height="8.8"/>
		<path style="fill:#60C2D8;" d="M137.2,517.5v18.3h-9.1v-8.4h-8.8v-9.2h8.8v-9.5h-9.5v9.5H112h-2.7h-1.6h-1.1h-1.6h-2.7h-6.5v-9.5
			h-9.5v9.5h8.8v9.2h-8.8v8.4h-9.1v-18.3h-9.2v29.4h5.7h1.9v6.5h9.4v10h10.1v-10h7.3h4.3h1.1h4.3h7.3v10h10.1v-10h9.4v-6.5h1.9h5.7
			v-29.4H137.2z M102.4,543.9h-7.3v-8h7.3V543.9z M119.3,543.9H112v-8h7.3V543.9z"/>
		<rect x="129.4" y="563.4" style="fill:#60C2D8;" width="8.8" height="8.8"/>
	</g>
	<g>
		<rect x="877.2" y="555.9" style="fill:#E94B9B;" width="9.9" height="9.9"/>
		<rect x="887.2" y="565.8" style="fill:#E94B9B;" width="16.9" height="8.4"/>
		<path style="fill:#E94B9B;" d="M943.9,537.6v-8.1h9.9v-17.6h-9.9v-0.4v-8.3h-7.7H925v-9.7h-8.9H915h-8.9v9.7h-11.2h-7.7v8.3v0.4
			h-9.9v17.6h9.9v8.1h7.7v9.7h-7.7v8.6h7.7h9.2v-8.6H915h1.1H927v8.6h9.2h7.7v-8.6h-7.7v-9.7H943.9z M894.9,520.7v-9.2h11.2v9.2
			H894.9z M927,537.6h-10.9H915h-10.9v-8.1h2h6.6h2.3h1.1h2.3h6.6h2V537.6z M925,520.7v-9.2h11.2v9.2H925z"/>
		<rect x="943.9" y="555.9" style="fill:#E94B9B;" width="9.9" height="9.9"/>
		<rect x="927" y="565.8" style="fill:#E94B9B;" width="16.9" height="8.4"/>
	</g>
	<path style="fill:#4252A4;" d="M895.8,349.9v-8.8h-8.4V332h-8.8v-7.6h-8v7.6h-8.8H853v-7.6h-8v7.6h-8.8v9.2h-8.4v8.8h-9.5v9.9V377
		h9.5v-17.2h8.4V377h8.8v8.8h-8.8v8.4h8.8h8v-8.4V377h4.4h4.4h4.4h4.4v8.8v8.4h8h8.8v-8.4h-8.8V377h8.8v-17.2h8.4V377h9.5v-17.2
		v-9.9H895.8z M853,359.8h-8v-9.9h8V359.8z M878.6,359.8h-8v-9.9h8V359.8z"/>
	<path style="fill:#B5BAC9;" d="M1046.8,441.4V433h-8.8v-10.3h-8.4v-8h8.4v-10.3h-10.3v10.3h-7.2v9.2h-9h-2h-9v-9.2h-7.2v-10.3
		h-10.3v10.3h8.4v8h-8.4V433H974v8.4h-8.8v17.2h8.8v-8.8h8.8v8.8h8.4v8.8h-8.4v9.5h9.5v-9.5h8v-8.8h3.1h6h2h6h3.1v8.8h8v9.5h9.5
		v-9.5h-8.4v-8.8h8.4v-8.8h8.8v8.8h8.8v-17.2H1046.8z M1000.4,441.2h-9.2V433h9.2V441.2z M1029.7,441.2h-9.2V433h9.2V441.2z"/>
	<g>
		<rect x="699.9" y="531.7" style="fill:#60C2D8;" width="8.8" height="8.8"/>
		<path style="fill:#60C2D8;" d="M760.8,485.8v18.3h-9.1v-8.4h-8.8v-9.2h8.8V477h-9.5v9.5h-6.5H733h-1.6h-1.1h-1.6h-2.7h-6.5V477
			H710v9.5h8.8v9.2H710v8.4h-9.1v-18.3h-9.2v29.4h5.7h1.9v6.5h9.4v10h10.1v-10h7.3h4.3h1.1h4.3h7.3v10H753v-10h9.4v-6.5h1.9h5.7
			v-29.4H760.8z M726.1,512.1h-7.3v-8h7.3V512.1z M742.9,512.1h-7.3v-8h7.3V512.1z"/>
		<rect x="753" y="531.7" style="fill:#60C2D8;" width="8.8" height="8.8"/>
	</g>
	<g>
		<rect x="527.4" y="203.7" style="fill:#E94B9B;" width="9.9" height="9.9"/>
		<rect x="537.4" y="213.7" style="fill:#E94B9B;" width="16.9" height="8.4"/>
		<path style="fill:#E94B9B;" d="M594.1,185.4v-8.1h9.9v-17.6h-9.9v-0.4V151h-7.7h-11.2v-9.7h-8.9h-1.1h-8.9v9.7h-11.2h-7.7v8.3v0.4
			h-9.9v17.6h9.9v8.1h7.7v9.7h-7.7v8.6h7.7h9.2v-8.6h10.9h1.1h10.9v8.6h9.2h7.7v-8.6h-7.7v-9.7H594.1z M545.1,168.5v-9.2h11.2v9.2
			H545.1z M577.2,185.4h-10.9h-1.1h-10.9v-8.1h2h6.6h2.3h1.1h2.3h6.6h2V185.4z M575.2,168.5v-9.2h11.2v9.2H575.2z"/>
		<rect x="594.1" y="203.7" style="fill:#E94B9B;" width="9.9" height="9.9"/>
		<rect x="577.2" y="213.7" style="fill:#E94B9B;" width="16.9" height="8.4"/>
	</g>
	<path style="fill:#4252A4;" d="M589.5-2.3V-11h-8.4v-9.2h-8.8v-7.6h-8v7.6h-8.8h-8.8v-7.6h-8v7.6h-8.8v9.2h-8.4v8.8H512v9.9v17.2
		h9.5V7.7h8.4v17.2h8.8v8.8h-8.8V42h8.8h8v-8.4v-8.8h4.4h4.4h4.4h4.4v8.8V42h8h8.8v-8.4h-8.8v-8.8h8.8V7.7h8.4v17.2h9.5V7.7v-9.9
		H589.5z M546.7,7.7h-8v-9.9h8V7.7z M572.3,7.7h-8v-9.9h8V7.7z"/>
	<path style="fill:#B5BAC9;" d="M697,89.2v-8.4h-8.8V70.5h-8.4v-8h8.4V52.2h-10.3v10.3h-7.2v9.2h-9h-2h-9v-9.2h-7.2V52.2H633v10.3
		h8.4v8H633v10.3h-8.8v8.4h-8.8v17.2h8.8v-8.8h8.8v8.8h8.4v8.8H633v9.5h9.5v-9.5h8v-8.8h3.1h6h2h6h3.1v8.8h8v9.5h9.5v-9.5h-8.4v-8.8
		h8.4v-8.8h8.8v8.8h8.8V89.2H697z M650.6,89h-9.2v-8.2h9.2V89z M679.9,89h-9.2v-8.2h9.2V89z"/>
	<path style="fill:#D5C828;" d="M811.1,14.7v-27.9H802V5.1h-8.4v-8.4h-8.8V-12h9.3v-9.3h-9.3v9.2h-10.3v8.8h-7.7H759v-8.8h-10.3
		v-9.2h-9.3v9.3h9.3v8.7h-8.8v8.4h-8.4v-18.3h-9.2v27.9h9.2V41h-9.2v9.5h9.2h4.2h4.2V32.2h8.8v10.1H759V32.2h7.7h7.7v10.1h10.3V32.2
		h8.8v18.3h4.2h4.2h9.2V41H802V14.7H811.1z M759,24h-10.3V5.1H759V24z M784.8,24h-10.3V5.1h10.3V24z"/>
	<g>
		<rect x="726.5" y="211.3" style="fill:#60C2D8;" width="8.8" height="8.8"/>
		<path style="fill:#60C2D8;" d="M787.4,165.3v18.3h-9.1v-8.4h-8.8v-9.2h8.8v-9.5h-9.5v9.5h-6.5h-2.7H758h-1.1h-1.6h-2.7h-6.5v-9.5
			h-9.5v9.5h8.8v9.2h-8.8v8.4h-9.1v-18.3h-9.2v29.4h5.7h1.9v6.5h9.4v10h10.1v-10h7.3h4.3h1.1h4.3h7.3v10h10.1v-10h9.4v-6.5h1.9h5.7
			v-29.4H787.4z M752.6,191.7h-7.3v-8h7.3V191.7z M769.5,191.7h-7.3v-8h7.3V191.7z"/>
		<rect x="779.6" y="211.3" style="fill:#60C2D8;" width="8.8" height="8.8"/>
	</g>
	<path style="fill:#4252A4;" d="M589.5,997.7V989h-8.4v-9.2h-8.8v-7.6h-8v7.6h-8.8h-8.8v-7.6h-8v7.6h-8.8v9.2h-8.4v8.8H512v9.9v17.2
		h9.5v-17.2h8.4v17.2h8.8v8.8h-8.8v8.4h8.8h8v-8.4v-8.8h4.4h4.4h4.4h4.4v8.8v8.4h8h8.8v-8.4h-8.8v-8.8h8.8v-17.2h8.4v17.2h9.5v-17.2
		v-9.9H589.5z M546.7,1007.7h-8v-9.9h8V1007.7z M572.3,1007.7h-8v-9.9h8V1007.7z"/>
	<path style="fill:#B5BAC9;" d="M573.8,456.3v-8.4H565v-10.3h-8.4v-8h8.4v-10.3h-10.3v10.3h-7.2v9.2h-9h-2h-9v-9.2h-7.2v-10.3h-10.3
		v10.3h8.4v8h-8.4v10.3H501v8.4h-8.8v17.2h8.8v-8.8h8.8v8.8h8.4v8.8h-8.4v9.5h9.5v-9.5h8v-8.8h3.1h6h2h6h3.1v8.8h8v9.5h9.5v-9.5
		h-8.4v-8.8h8.4v-8.8h8.8v8.8h8.8v-17.2H573.8z M527.3,456.1h-9.2v-8.2h9.2V456.1z M556.6,456.1h-9.2v-8.2h9.2V456.1z"/>
	<path style="fill:#D5C828;" d="M811.1,1014.7v-27.9H802v18.3h-8.4v-8.4h-8.8V988h9.3v-9.3h-9.3v9.2h-10.3v8.8h-7.7H759v-8.8h-10.3
		v-9.2h-9.3v9.3h9.3v8.7h-8.8v8.4h-8.4v-18.3h-9.2v27.9h9.2v26.3h-9.2v9.5h9.2h4.2h4.2v-18.3h8.8v10.1H759v-10.1h7.7h7.7v10.1h10.3
		v-10.1h8.8v18.3h4.2h4.2h9.2v-9.5H802v-26.3H811.1z M759,1024h-10.3v-18.9H759V1024z M784.8,1024h-10.3v-18.9h10.3V1024z"/>
	<g>
		<rect x="196.6" y="47.3" style="fill:#E94B9B;" width="9.9" height="9.9"/>
		<rect x="206.5" y="57.2" style="fill:#E94B9B;" width="16.9" height="8.4"/>
		<path style="fill:#E94B9B;" d="M263.3,28.9v-8.1h9.9V3.3h-9.9V2.8v-8.3h-7.7h-11.2v-9.7h-8.9h-1.1h-8.9v9.7h-11.2h-7.7v8.3v0.4
			h-9.9v17.6h9.9v8.1h7.7v9.7h-7.7v8.6h7.7h9.2v-8.6h10.9h1.1h10.9v8.6h9.2h7.7v-8.6h-7.7v-9.7H263.3z M214.3,12V2.8h11.2V12H214.3z
			 M246.4,28.9h-10.9h-1.1h-10.9v-8.1h2h6.6h2.3h1.1h2.3h6.6h2V28.9z M244.4,12V2.8h11.2V12H244.4z"/>
		<rect x="263.3" y="47.3" style="fill:#E94B9B;" width="9.9" height="9.9"/>
		<rect x="246.4" y="57.2" style="fill:#E94B9B;" width="16.9" height="8.4"/>
	</g>
	<path style="fill:#4252A4;" d="M143.1,124.5v-8.8h-8.4v-9.2h-8.8v-7.6h-8v7.6h-8.8h-8.8v-7.6h-8v7.6h-8.8v9.2h-8.4v8.8h-9.5v9.9
		v17.2h9.5v-17.2h8.4v17.2h8.8v8.8h-8.8v8.4h8.8h8v-8.4v-8.8h4.4h4.4h4.4h4.4v8.8v8.4h8h8.8v-8.4h-8.8v-8.8h8.8v-17.2h8.4v17.2h9.5
		v-17.2v-9.9H143.1z M100.3,134.4h-8v-9.9h8V134.4z M125.9,134.4h-8v-9.9h8V134.4z"/>
	<g>
		<rect x="395.7" y="54.8" style="fill:#60C2D8;" width="8.8" height="8.8"/>
		<path style="fill:#60C2D8;" d="M456.6,8.9v18.3h-9.1v-8.4h-8.8V9.6h8.8V0.1h-9.5v9.5h-6.5h-2.7h-1.6h-1.1h-1.6h-2.7h-6.5V0.1h-9.5
			v9.5h8.8v9.2h-8.8v8.4h-9.1V8.9h-9.2v29.4h5.7h1.9v6.5h9.4v10h10.1v-10h7.3h4.3h1.1h4.3h7.3v10h10.1v-10h9.4v-6.5h1.9h5.7V8.9
			H456.6z M421.8,35.2h-7.3v-8h7.3V35.2z M438.7,35.2h-7.3v-8h7.3V35.2z"/>
		<rect x="448.8" y="54.8" style="fill:#60C2D8;" width="8.8" height="8.8"/>
	</g>
	<g>
		<path style="fill:#E94B9B;" d="M263.3,1028.9v-8.1h9.9v-17.6h-9.9v-0.4v-8.3h-7.7h-11.2v-9.7h-8.9h-1.1h-8.9v9.7h-11.2h-7.7v8.3
			v0.4h-9.9v17.6h9.9v8.1h7.7v9.7h-7.7v8.6h7.7h9.2v-8.6h10.9h1.1h10.9v8.6h9.2h7.7v-8.6h-7.7v-9.7H263.3z M214.3,1012v-9.2h11.2
			v9.2H214.3z M246.4,1028.9h-10.9h-1.1h-10.9v-8.1h2h6.6h2.3h1.1h2.3h6.6h2V1028.9z M244.4,1012v-9.2h11.2v9.2H244.4z"/>
	</g>
	<path style="fill:#4252A4;" d="M249,803.8V795h-8.4v-9.2h-8.8v-7.6h-8v7.6H215h-8.8v-7.6h-8v7.6h-8.8v9.2H181v8.8h-9.5v9.9v17.2
		h9.5v-17.2h8.4v17.2h8.8v8.8h-8.8v8.4h8.8h8v-8.4v-8.8h4.4h4.4h4.4h4.4v8.8v8.4h8h8.8v-8.4h-8.8v-8.8h8.8v-17.2h8.4v17.2h9.5v-17.2
		v-9.9H249z M206.2,813.8h-8v-9.9h8V813.8z M231.8,813.8h-8v-9.9h8V813.8z"/>
	<path style="fill:#B5BAC9;" d="M393.8,903v-8.4h-8.8v-10.3h-8.4v-8h8.4V866h-10.3v10.3h-7.2v9.2h-9h-2h-9v-9.2h-7.2V866h-10.3v10.3
		h8.4v8h-8.4v10.3H321v8.4h-8.8v17.2h8.8v-8.8h8.8v8.8h8.4v8.8h-8.4v9.5h9.5V929h8v-8.8h3.1h6h2h6h3.1v8.8h8v9.5h9.5V929h-8.4v-8.8
		h8.4v-8.8h8.8v8.8h8.8V903H393.8z M347.4,902.9h-9.2v-8.2h9.2V902.9z M376.7,902.9h-9.2v-8.2h9.2V902.9z"/>
	<path style="fill:#D5C828;" d="M493.2,765.9v-27.9H484v18.3h-8.4V748h-8.8v-8.7h9.3V730h-9.3v9.2h-10.3v8.8h-7.7h-7.7v-8.8h-10.3
		V730h-9.3v9.3h9.3v8.7H422v8.4h-8.4v-18.3h-9.2v27.9h9.2v26.3h-9.2v9.5h9.2h4.2h4.2v-18.3h8.8v10.1h10.3v-10.1h7.7h7.7v10.1h10.3
		v-10.1h8.8v18.3h4.2h4.2h9.2v-9.5H484v-26.3H493.2z M441.1,775.3h-10.3v-18.9h10.3V775.3z M466.8,775.3h-10.3v-18.9h10.3V775.3z"/>
	<g>
		<path style="fill:#60C2D8;" d="M10.2,222.4v18.3H1.2v-8.4h-8.8v-9.2h8.8v-9.5h-9.5v9.5h-6.5h-2.7h-1.6h-1.1h-1.6h-2.7H-31v-9.5
			h-9.5v9.5h8.8v9.2h-8.8v8.4h-9.1v-18.3h-9.2v29.4h5.7h1.9v6.5h9.4v10h10.1v-10h7.3h4.3h1.1h4.3h7.3v10H2.5v-10h9.4v-6.5h1.9h5.7
			v-29.4H10.2z M-24.5,248.8h-7.3v-8h7.3V248.8z M-7.6,248.8h-7.3v-8h7.3V248.8z"/>
		<rect x="2.5" y="268.4" style="fill:#60C2D8;" width="8.8" height="8.8"/>
	</g>
	<g>
		<rect x="949.4" y="268.4" style="fill:#60C2D8;" width="8.8" height="8.8"/>
		<path style="fill:#60C2D8;" d="M1010.2,222.4v18.3h-9.1v-8.4h-8.8v-9.2h8.8v-9.5h-9.5v9.5h-6.5h-2.7h-1.6h-1.1h-1.6h-2.7H969v-9.5
			h-9.5v9.5h8.8v9.2h-8.8v8.4h-9.1v-18.3h-9.2v29.4h5.7h1.9v6.5h9.4v10h10.1v-10h7.3h4.3h1.1h4.3h7.3v10h10.1v-10h9.4v-6.5h1.9h5.7
			v-29.4H1010.2z M975.5,248.8h-7.3v-8h7.3V248.8z M992.4,248.8h-7.3v-8h7.3V248.8z"/>
	</g>
	<g>
		<rect x="252.5" y="481.7" style="fill:#E94B9B;" width="9.9" height="9.9"/>
		<rect x="262.5" y="491.6" style="fill:#E94B9B;" width="16.9" height="8.4"/>
		<path style="fill:#E94B9B;" d="M319.2,463.3v-8.1h9.9v-17.6h-9.9v-0.4V429h-7.7h-11.2v-9.7h-8.9h-1.1h-8.9v9.7h-11.2h-7.7v8.3v0.4
			h-9.9v17.6h9.9v8.1h7.7v9.7h-7.7v8.6h7.7h9.2v-8.6h10.9h1.1h10.9v8.6h9.2h7.7v-8.6h-7.7v-9.7H319.2z M270.2,446.4v-9.2h11.2v9.2
			H270.2z M302.3,463.3h-10.9h-1.1h-10.9v-8.1h2h6.6h2.3h1.1h2.3h6.6h2V463.3z M300.3,446.4v-9.2h11.2v9.2H300.3z"/>
		<rect x="319.2" y="481.7" style="fill:#E94B9B;" width="9.9" height="9.9"/>
		<rect x="302.3" y="491.6" style="fill:#E94B9B;" width="16.9" height="8.4"/>
	</g>
	<path style="fill:#B5BAC9;" d="M271.3,222.8v-8.4h-8.8v-10.3h-8.4v-8h8.4v-10.3h-10.3v10.3H245v9.2h-9h-2h-9v-9.2h-7.2v-10.3h-10.3
		v10.3h8.4v8h-8.4v10.3h-8.8v8.4h-8.8V240h8.8v-8.8h8.8v8.8h8.4v8.8h-8.4v9.5h9.5v-9.5h8V240h3.1h6h2h6h3.1v8.8h8v9.5h9.5v-9.5h-8.4
		V240h8.4v-8.8h8.8v8.8h8.8v-17.2H271.3z M224.8,222.6h-9.2v-8.2h9.2V222.6z M254.1,222.6H245v-8.2h9.2V222.6z"/>
</g>
</svg>
